<svg width="47" height="44" viewBox="0 0 47 44" fill="none" xmlns="http://www.w3.org/2000/svg">
<rect x="19.8711" y="5.47461" width="1.01382" height="32.8479" fill="#688A40"/>
<rect x="18.4517" y="12.3682" width="1.01382" height="17.235" fill="#688A40"/>
<rect x="21.2905" y="12.3682" width="1.01382" height="25.9539" fill="#688A40"/>
<path d="M20.3776 5.47423C22.2435 5.47423 24.0848 5.83303 25.7614 6.52333C27.438 7.21363 28.9057 8.21724 30.0528 9.45777C31.1999 10.6983 31.9962 12.1431 32.3811 13.6822C32.766 15.2212 32.7293 16.814 32.2739 18.3393C31.8184 19.8647 30.9562 21.2823 29.7529 22.4844C28.5495 23.6865 27.0367 24.6413 25.3296 25.2763C23.6225 25.9112 21.7661 26.2095 19.9016 26.1485C18.0371 26.0874 16.2137 25.6687 14.5702 24.924L15.2971 23.7839C16.7349 24.4353 18.3301 24.8017 19.9612 24.8551C21.5923 24.9085 23.2164 24.6475 24.7098 24.092C26.2032 23.5366 27.5267 22.7012 28.5794 21.6496C29.6321 20.598 30.3864 19.3578 30.7848 18.0234C31.1833 16.689 31.2154 15.2956 30.8786 13.9492C30.5419 12.6027 29.8453 11.3388 28.8418 10.2535C27.8383 9.16827 26.5543 8.29028 25.0875 7.68638C23.6208 7.08248 22.01 6.76859 20.3776 6.76859L20.3776 5.47423Z" fill="#688A40"/>
<path d="M21.3918 12.3685C23.1093 12.3685 24.8099 12.5705 26.3967 12.9628C27.9834 13.3551 29.4252 13.9301 30.6396 14.655C31.854 15.3799 32.8174 16.2405 33.4746 17.1876C34.1319 18.1347 34.4702 19.1498 34.4702 20.175C34.4702 21.2002 34.1319 22.2153 33.4746 23.1624C32.8174 24.1095 31.854 24.9701 30.6396 25.695C29.4252 26.4199 27.9834 26.9949 26.3967 27.3872C24.8099 27.7795 23.1093 27.9814 21.3918 27.9814L21.3918 27.0056C22.8946 27.0056 24.3827 26.829 25.7711 26.4857C27.1595 26.1424 28.421 25.6393 29.4836 25.005C30.5463 24.3707 31.3892 23.6177 31.9643 22.789C32.5394 21.9602 32.8354 21.072 32.8354 20.175C32.8354 19.278 32.5394 18.3898 31.9643 17.561C31.3892 16.7323 30.5463 15.9793 29.4836 15.345C28.421 14.7107 27.1595 14.2076 25.7711 13.8643C24.3827 13.521 22.8946 13.3443 21.3918 13.3443L21.3918 12.3685Z" fill="#688A40"/>
<path d="M34.4702 15.8156C35.3388 14.9842 35.977 14.487 35.9475 13.8404C36.3403 10.1447 37.1443 7.76721 39.7079 6.98509C40.3308 8.20295 40.3285 8.61615 39.7079 9.19273H40.3794C40.8767 8.11139 40.5999 6.54999 43.7368 5.93937C44.3854 5.83104 44.5764 5.69939 44.8112 5.47461C44.662 5.86644 44.5936 6.12581 44.6769 6.75271C44.9582 8.56397 44.6081 9.52331 43.3339 11.168C41.935 11.2356 41.9928 11.4156 42.5281 11.8651C40.8309 11.8959 40.8866 11.9701 41.5881 12.5623C39.5291 12.4184 39.5295 12.7369 40.3794 13.3756C38.2723 13.0229 38.2322 13.3729 39.1707 14.0728C38.2604 14.2876 37.8834 14.3493 37.8277 14.1889C37.4107 14.7717 36.5843 15.1334 34.4702 15.8156Z" fill="#ADC725" stroke="#4CA42A"/>
<path d="M38.3734 5.33513C34.0842 1.83227 28.592 -0.064517 22.9302 0.00167409C17.2683 0.0678652 11.8272 2.09247 7.63057 5.69454C3.43393 9.29661 0.771132 14.2278 0.143202 19.5603C-0.484727 24.8927 0.965504 30.2588 4.22102 34.6489C7.47653 39.0389 12.3129 42.1502 17.8201 43.3974C23.3273 44.6446 29.1256 43.9417 34.124 41.4208C39.1225 38.9 42.9765 34.7352 44.9608 29.7099C46.9452 24.6846 46.923 19.1454 44.8986 14.1344L40.1363 15.8621C41.7161 19.7724 41.7334 24.0949 40.1849 28.0165C38.6364 31.938 35.6289 35.1881 31.7283 37.1552C27.8277 39.1223 23.3029 39.6709 19.0054 38.6976C14.7078 37.7244 10.9337 35.2964 8.39325 31.8706C5.85278 28.4448 4.72109 24.2574 5.2111 20.0961C5.70111 15.9349 7.77904 12.0868 11.0539 9.27591C14.3288 6.46501 18.5748 4.88509 22.9931 4.83344C27.4114 4.78179 31.6972 6.26196 35.0443 8.99544L38.3734 5.33513Z" fill="#688A40"/>
<rect x="19.8711" y="5.47461" width="1.01382" height="32.8479" fill="#688A40"/>
<rect x="18.4517" y="12.3682" width="1.01382" height="17.235" fill="#688A40"/>
<rect x="21.2905" y="12.3682" width="1.01382" height="25.9539" fill="#688A40"/>
<path d="M20.3776 5.47423C22.2435 5.47423 24.0848 5.83303 25.7614 6.52333C27.438 7.21363 28.9057 8.21724 30.0528 9.45777C31.1999 10.6983 31.9962 12.1431 32.3811 13.6822C32.766 15.2212 32.7293 16.814 32.2739 18.3393C31.8184 19.8647 30.9562 21.2823 29.7529 22.4844C28.5495 23.6865 27.0367 24.6413 25.3296 25.2763C23.6225 25.9112 21.7661 26.2095 19.9016 26.1485C18.0371 26.0874 16.2137 25.6687 14.5702 24.924L15.2971 23.7839C16.7349 24.4353 18.3301 24.8017 19.9612 24.8551C21.5923 24.9085 23.2164 24.6475 24.7098 24.092C26.2032 23.5366 27.5267 22.7012 28.5794 21.6496C29.6321 20.598 30.3864 19.3578 30.7848 18.0234C31.1833 16.689 31.2154 15.2956 30.8786 13.9492C30.5419 12.6027 29.8453 11.3388 28.8418 10.2535C27.8383 9.16827 26.5543 8.29028 25.0875 7.68638C23.6208 7.08248 22.01 6.76859 20.3776 6.76859L20.3776 5.47423Z" fill="#688A40"/>
<path d="M21.3918 12.3685C23.1093 12.3685 24.8099 12.5705 26.3967 12.9628C27.9834 13.3551 29.4252 13.9301 30.6396 14.655C31.854 15.3799 32.8174 16.2405 33.4746 17.1876C34.1319 18.1347 34.4702 19.1498 34.4702 20.175C34.4702 21.2002 34.1319 22.2153 33.4746 23.1624C32.8174 24.1095 31.854 24.9701 30.6396 25.695C29.4252 26.4199 27.9834 26.9949 26.3967 27.3872C24.8099 27.7795 23.1093 27.9814 21.3918 27.9814L21.3918 27.0056C22.8946 27.0056 24.3827 26.829 25.7711 26.4857C27.1595 26.1424 28.421 25.6393 29.4836 25.005C30.5463 24.3707 31.3892 23.6177 31.9643 22.789C32.5394 21.9602 32.8354 21.072 32.8354 20.175C32.8354 19.278 32.5394 18.3898 31.9643 17.561C31.3892 16.7323 30.5463 15.9793 29.4836 15.345C28.421 14.7107 27.1595 14.2076 25.7711 13.8643C24.3827 13.521 22.8946 13.3443 21.3918 13.3443L21.3918 12.3685Z" fill="#688A40"/>
<path d="M34.4702 15.8156C35.3388 14.9842 35.977 14.487 35.9475 13.8404C36.3403 10.1447 37.1443 7.76721 39.7079 6.98509C40.3308 8.20295 40.3285 8.61615 39.7079 9.19273H40.3794C40.8767 8.11139 40.5999 6.54999 43.7368 5.93937C44.3854 5.83104 44.5764 5.69939 44.8112 5.47461C44.662 5.86644 44.5936 6.12581 44.6769 6.75271C44.9582 8.56397 44.6081 9.52331 43.3339 11.168C41.935 11.2356 41.9928 11.4156 42.5281 11.8651C40.8309 11.8959 40.8866 11.9701 41.5881 12.5623C39.5291 12.4184 39.5295 12.7369 40.3794 13.3756C38.2723 13.0229 38.2322 13.3729 39.1707 14.0728C38.2604 14.2876 37.8834 14.3493 37.8277 14.1889C37.4107 14.7717 36.5843 15.1334 34.4702 15.8156Z" fill="#ADC725" stroke="#4CA42A"/>
<path d="M38.3734 5.33513C34.0842 1.83227 28.592 -0.064517 22.9302 0.00167409C17.2683 0.0678652 11.8272 2.09247 7.63057 5.69454C3.43393 9.29661 0.771132 14.2278 0.143202 19.5603C-0.484727 24.8927 0.965504 30.2588 4.22102 34.6489C7.47653 39.0389 12.3129 42.1502 17.8201 43.3974C23.3273 44.6446 29.1256 43.9417 34.124 41.4208C39.1225 38.9 42.9765 34.7352 44.9608 29.7099C46.9452 24.6846 46.923 19.1454 44.8986 14.1344L40.1363 15.8621C41.7161 19.7724 41.7334 24.0949 40.1849 28.0165C38.6364 31.938 35.6289 35.1881 31.7283 37.1552C27.8277 39.1223 23.3029 39.6709 19.0054 38.6976C14.7078 37.7244 10.9337 35.2964 8.39325 31.8706C5.85278 28.4448 4.72109 24.2574 5.2111 20.0961C5.70111 15.9349 7.77904 12.0868 11.0539 9.27591C14.3288 6.46501 18.5748 4.88509 22.9931 4.83344C27.4114 4.78179 31.6972 6.26196 35.0443 8.99544L38.3734 5.33513Z" fill="#688A40"/>
</svg>
